<mxfile host="app.diagrams.net" modified="2024-04-19T08:44:12.813Z" agent="Mozilla/5.0 (Macintosh; Intel Mac OS X 10_15_7) AppleWebKit/537.36 (KHTML, like Gecko) Chrome/124.0.0.0 Safari/537.36" version="24.2.5" etag="fQNSzVB_1QEbpoOaUYsH" type="github">
  <diagram name="Page-1" id="RG7AY8jgUJ1L5FZJlrDb">
    <mxGraphModel>
      <root>
        <mxCell id="0" />
        <mxCell id="1" parent="0" />
      </root>
    </mxGraphModel>
  </diagram>
</mxfile>
